<svg width="16" height="16" viewBox="0 0 16 16" fill="none" xmlns="http://www.w3.org/2000/svg">
<g clip-path="url(#clip0_23_691)">
<path d="M6.66675 9.77335V10.8573C6.66423 11.0858 6.60307 11.3097 6.48914 11.5077C6.3752 11.7057 6.21231 11.8711 6.01608 11.988C5.59951 12.2966 5.26064 12.698 5.0264 13.1605C4.79217 13.6229 4.66902 14.1336 4.66675 14.652" stroke="black" stroke-width="1.33333" stroke-linecap="round" stroke-linejoin="round"/>
<path d="M9.33325 9.77335V10.8573C9.33577 11.0858 9.39693 11.3097 9.51086 11.5077C9.6248 11.7057 9.78769 11.8711 9.98392 11.988C10.4005 12.2966 10.7394 12.698 10.9736 13.1605C11.2078 13.6229 11.331 14.1336 11.3333 14.652" stroke="black" stroke-width="1.33333" stroke-linecap="round" stroke-linejoin="round"/>
<path d="M12 5.99999H13C13.442 5.99999 13.866 5.82439 14.1785 5.51183C14.4911 5.19927 14.6667 4.77535 14.6667 4.33332C14.6667 3.8913 14.4911 3.46737 14.1785 3.15481C13.866 2.84225 13.442 2.66666 13 2.66666H12" stroke="black" stroke-width="1.33333" stroke-linecap="round" stroke-linejoin="round"/>
<path d="M2.66675 14.6667H13.3334" stroke="black" stroke-width="1.33333" stroke-linecap="round" stroke-linejoin="round"/>
<path d="M4 6.00001C4 7.06088 4.42143 8.07829 5.17157 8.82844C5.92172 9.57858 6.93913 10 8 10C9.06087 10 10.0783 9.57858 10.8284 8.82844C11.5786 8.07829 12 7.06088 12 6.00001V2.00001C12 1.8232 11.9298 1.65363 11.8047 1.52861C11.6797 1.40358 11.5101 1.33334 11.3333 1.33334H4.66667C4.48986 1.33334 4.32029 1.40358 4.19526 1.52861C4.07024 1.65363 4 1.8232 4 2.00001V6.00001Z" stroke="black" stroke-width="1.33333" stroke-linecap="round" stroke-linejoin="round"/>
<path d="M3.99992 5.99999H2.99992C2.55789 5.99999 2.13397 5.82439 1.82141 5.51183C1.50885 5.19927 1.33325 4.77535 1.33325 4.33332C1.33325 3.8913 1.50885 3.46737 1.82141 3.15481C2.13397 2.84225 2.55789 2.66666 2.99992 2.66666H3.99992" stroke="black" stroke-width="1.33333" stroke-linecap="round" stroke-linejoin="round"/>
</g>
<defs>
<clipPath id="clip0_23_691">
<rect width="16" height="16" fill="white"/>
</clipPath>
</defs>
</svg>
