<svg width="16" height="16" viewBox="0 0 16 16" fill="none" xmlns="http://www.w3.org/2000/svg">
<path d="M2.66674 9.33333C2.54059 9.33376 2.4169 9.29838 2.31005 9.23131C2.20319 9.16424 2.11757 9.06823 2.06311 8.95443C2.00865 8.84063 1.9876 8.71372 2.00241 8.58843C2.01721 8.46314 2.06726 8.34463 2.14674 8.24666L8.74674 1.44666C8.79625 1.38951 8.86372 1.3509 8.93806 1.33715C9.01241 1.3234 9.08923 1.33533 9.1559 1.37099C9.22257 1.40666 9.27513 1.46392 9.30497 1.5334C9.3348 1.60287 9.34013 1.68042 9.32008 1.75333L8.04008 5.76666C8.00233 5.86767 7.98966 5.97634 8.00314 6.08333C8.01662 6.19032 8.05585 6.29245 8.11747 6.38094C8.17909 6.46944 8.26126 6.54167 8.35693 6.59143C8.45259 6.6412 8.55891 6.66701 8.66674 6.66666H13.3334C13.4596 6.66623 13.5833 6.7016 13.6901 6.76867C13.797 6.83574 13.8826 6.93176 13.937 7.04555C13.9915 7.15935 14.0125 7.28627 13.9977 7.41155C13.9829 7.53684 13.9329 7.65535 13.8534 7.75333L7.25341 14.5533C7.2039 14.6105 7.13644 14.6491 7.06209 14.6628C6.98774 14.6766 6.91093 14.6646 6.84426 14.629C6.77759 14.5933 6.72502 14.5361 6.69519 14.4666C6.66535 14.3971 6.66002 14.3196 6.68008 14.2467L7.96008 10.2333C7.99782 10.1323 8.0105 10.0236 7.99702 9.91665C7.98354 9.80966 7.9443 9.70754 7.88268 9.61904C7.82106 9.53054 7.73889 9.45832 7.64323 9.40855C7.54756 9.35879 7.44125 9.33297 7.33341 9.33333H2.66674Z" fill="#FFB412" stroke="#7CB342" stroke-width="1.33333" stroke-linecap="round" stroke-linejoin="round"/>
</svg>
