<svg width="16" height="16" viewBox="0 0 16 16" fill="none" xmlns="http://www.w3.org/2000/svg">
<g clip-path="url(#clip0_23_745)">
<path d="M6.66675 9.77332V10.8573C6.66423 11.0857 6.60307 11.3097 6.48914 11.5077C6.3752 11.7056 6.21231 11.871 6.01608 11.988C5.59951 12.2965 5.26064 12.698 5.0264 13.1604C4.79217 13.6229 4.66902 14.1336 4.66675 14.652" stroke="#558B2F" stroke-width="1.33333" stroke-linecap="round" stroke-linejoin="round"/>
<path d="M9.33325 9.77332V10.8573C9.33577 11.0857 9.39693 11.3097 9.51086 11.5077C9.6248 11.7056 9.78769 11.871 9.98392 11.988C10.4005 12.2965 10.7394 12.698 10.9736 13.1604C11.2078 13.6229 11.331 14.1336 11.3333 14.652" stroke="#558B2F" stroke-width="1.33333" stroke-linecap="round" stroke-linejoin="round"/>
<path d="M12 6.00002H13C13.442 6.00002 13.866 5.82443 14.1785 5.51186C14.4911 5.1993 14.6667 4.77538 14.6667 4.33335C14.6667 3.89133 14.4911 3.4674 14.1785 3.15484C13.866 2.84228 13.442 2.66669 13 2.66669H12" stroke="#558B2F" stroke-width="1.33333" stroke-linecap="round" stroke-linejoin="round"/>
<path d="M2.66675 14.6667H13.3334" stroke="#558B2F" stroke-width="1.33333" stroke-linecap="round" stroke-linejoin="round"/>
<path d="M4 5.99998C4 7.06085 4.42143 8.07826 5.17157 8.82841C5.92172 9.57855 6.93913 9.99998 8 9.99998C9.06087 9.99998 10.0783 9.57855 10.8284 8.82841C11.5786 8.07826 12 7.06085 12 5.99998V1.99998C12 1.82317 11.9298 1.6536 11.8047 1.52858C11.6797 1.40355 11.5101 1.33331 11.3333 1.33331H4.66667C4.48986 1.33331 4.32029 1.40355 4.19526 1.52858C4.07024 1.6536 4 1.82317 4 1.99998V5.99998Z" stroke="black" stroke-width="1.33333" stroke-linecap="round" stroke-linejoin="round"/>
<path d="M3.99992 6.00002H2.99992C2.55789 6.00002 2.13397 5.82443 1.82141 5.51186C1.50885 5.1993 1.33325 4.77538 1.33325 4.33335C1.33325 3.89133 1.50885 3.4674 1.82141 3.15484C2.13397 2.84228 2.55789 2.66669 2.99992 2.66669H3.99992" stroke="#558B2F" stroke-width="1.33333" stroke-linecap="round" stroke-linejoin="round"/>
</g>
<defs>
<clipPath id="clip0_23_745">
<rect width="16" height="16" fill="white"/>
</clipPath>
</defs>
</svg>
