<svg width="20" height="20" viewBox="0 0 20 20" fill="none" xmlns="http://www.w3.org/2000/svg">
<g clip-path="url(#clip0_42_2216)">
<path d="M10.0001 18.3334C14.6025 18.3334 18.3334 14.6025 18.3334 10.0001C18.3334 5.39771 14.6025 1.66675 10.0001 1.66675C5.39771 1.66675 1.66675 5.39771 1.66675 10.0001C1.66675 14.6025 5.39771 18.3334 10.0001 18.3334Z" stroke="#3182CE" stroke-width="1.66667" stroke-linecap="round" stroke-linejoin="round"/>
<path d="M10 15C12.7614 15 15 12.7614 15 10C15 7.23858 12.7614 5 10 5C7.23858 5 5 7.23858 5 10C5 12.7614 7.23858 15 10 15Z" stroke="#3182CE" stroke-width="1.66667" stroke-linecap="round" stroke-linejoin="round"/>
<path d="M9.99992 11.6666C10.9204 11.6666 11.6666 10.9204 11.6666 9.99992C11.6666 9.07944 10.9204 8.33325 9.99992 8.33325C9.07944 8.33325 8.33325 9.07944 8.33325 9.99992C8.33325 10.9204 9.07944 11.6666 9.99992 11.6666Z" stroke="#3182CE" stroke-width="1.66667" stroke-linecap="round" stroke-linejoin="round"/>
</g>
<defs>
<clipPath id="clip0_42_2216">
<rect width="20" height="20" fill="white"/>
</clipPath>
</defs>
</svg>
