<svg width="20" height="20" viewBox="0 0 20 20" fill="none" xmlns="http://www.w3.org/2000/svg">
<g clip-path="url(#clip0_42_2204)">
<path d="M8.33325 12.2166V13.5716C8.3301 13.8571 8.25366 14.137 8.11124 14.3845C7.96882 14.632 7.7652 14.8387 7.51992 14.9849C6.9992 15.3706 6.57562 15.8724 6.28282 16.4504C5.99003 17.0285 5.83609 17.6669 5.83325 18.3149" stroke="#7CB342" stroke-width="1.66667" stroke-linecap="round" stroke-linejoin="round"/>
<path d="M11.6667 12.2166V13.5716C11.6699 13.8571 11.7463 14.137 11.8888 14.3845C12.0312 14.632 12.2348 14.8387 12.4801 14.9849C13.0008 15.3706 13.4244 15.8724 13.7172 16.4504C14.01 17.0285 14.1639 17.6669 14.1667 18.3149" stroke="#7CB342" stroke-width="1.66667" stroke-linecap="round" stroke-linejoin="round"/>
<path d="M15 7.49992H16.25C16.8025 7.49992 17.3324 7.28043 17.7231 6.88972C18.1138 6.49902 18.3333 5.96912 18.3333 5.41659C18.3333 4.86405 18.1138 4.33415 17.7231 3.94345C17.3324 3.55275 16.8025 3.33325 16.25 3.33325H15" stroke="#7CB342" stroke-width="1.66667" stroke-linecap="round" stroke-linejoin="round"/>
<path d="M3.33325 18.3333H16.6666" stroke="#7CB342" stroke-width="1.66667" stroke-linecap="round" stroke-linejoin="round"/>
<path d="M5 7.50008C5 8.82616 5.52678 10.0979 6.46447 11.0356C7.40215 11.9733 8.67392 12.5001 10 12.5001C11.3261 12.5001 12.5979 11.9733 13.5355 11.0356C14.4732 10.0979 15 8.82616 15 7.50008V2.50008C15 2.27907 14.9122 2.06711 14.7559 1.91083C14.5996 1.75455 14.3877 1.66675 14.1667 1.66675H5.83333C5.61232 1.66675 5.40036 1.75455 5.24408 1.91083C5.0878 2.06711 5 2.27907 5 2.50008V7.50008Z" stroke="#7CB342" stroke-width="1.66667" stroke-linecap="round" stroke-linejoin="round"/>
<path d="M5.00008 7.49992H3.75008C3.19755 7.49992 2.66764 7.28043 2.27694 6.88972C1.88624 6.49902 1.66675 5.96912 1.66675 5.41659C1.66675 4.86405 1.88624 4.33415 2.27694 3.94345C2.66764 3.55275 3.19755 3.33325 3.75008 3.33325H5.00008" stroke="#7CB342" stroke-width="1.66667" stroke-linecap="round" stroke-linejoin="round"/>
</g>
<defs>
<clipPath id="clip0_42_2204">
<rect width="20" height="20" fill="white"/>
</clipPath>
</defs>
</svg>
