<svg width="16" height="16" viewBox="0 0 16 16" fill="none" xmlns="http://www.w3.org/2000/svg">
<g clip-path="url(#clip0_51_60)">
<path d="M7.99992 14.6667C11.6818 14.6667 14.6666 11.6819 14.6666 8.00004C14.6666 4.31814 11.6818 1.33337 7.99992 1.33337C4.31802 1.33337 1.33325 4.31814 1.33325 8.00004C1.33325 11.6819 4.31802 14.6667 7.99992 14.6667Z" stroke="#718096" stroke-width="1.33333" stroke-linecap="round" stroke-linejoin="round"/>
<path d="M8 12C10.2091 12 12 10.2091 12 8C12 5.79086 10.2091 4 8 4C5.79086 4 4 5.79086 4 8C4 10.2091 5.79086 12 8 12Z" stroke="#718096" stroke-width="1.33333" stroke-linecap="round" stroke-linejoin="round"/>
<path d="M8.00008 9.33329C8.73646 9.33329 9.33341 8.73634 9.33341 7.99996C9.33341 7.26358 8.73646 6.66663 8.00008 6.66663C7.2637 6.66663 6.66675 7.26358 6.66675 7.99996C6.66675 8.73634 7.2637 9.33329 8.00008 9.33329Z" stroke="#718096" stroke-width="1.33333" stroke-linecap="round" stroke-linejoin="round"/>
</g>
<defs>
<clipPath id="clip0_51_60">
<rect width="16" height="16" fill="white"/>
</clipPath>
</defs>
</svg>
