<svg width="32" height="32" viewBox="0 0 32 32" fill="none" xmlns="http://www.w3.org/2000/svg">
<path d="M16.0001 4C16.889 7.55556 18.6667 10.4444 21.3334 12.6667C24.0001 14.8889 25.3334 17.3333 25.3334 20C25.3334 22.4754 24.3501 24.8493 22.5997 26.5997C20.8494 28.35 18.4754 29.3333 16.0001 29.3333C13.5247 29.3333 11.1508 28.35 9.40042 26.5997C7.65008 24.8493 6.66675 22.4754 6.66675 20C6.66675 18.5575 7.1346 17.154 8.00008 16C8.00008 16.8841 8.35127 17.7319 8.97639 18.357C9.60151 18.9821 10.4494 19.3333 11.3334 19.3333C12.2175 19.3333 13.0653 18.9821 13.6904 18.357C14.3156 17.7319 14.6667 16.8841 14.6667 16C14.6667 13.3333 12.6667 12 12.6667 9.33333C12.6667 7.55556 13.7779 5.77778 16.0001 4Z" stroke="#FFB412" stroke-width="2.66667" stroke-linecap="round" stroke-linejoin="round"/>
</svg>
