<svg width="20" height="20" viewBox="0 0 20 20" fill="none" xmlns="http://www.w3.org/2000/svg">
<path d="M10.0001 2.5C10.5556 4.72222 11.6667 6.52778 13.3334 7.91667C15.0001 9.30556 15.8334 10.8333 15.8334 12.5C15.8334 14.0471 15.2188 15.5308 14.1249 16.6248C13.0309 17.7188 11.5472 18.3333 10.0001 18.3333C8.45299 18.3333 6.96925 17.7188 5.87529 16.6248C4.78133 15.5308 4.16675 14.0471 4.16675 12.5C4.16675 11.5985 4.45916 10.7212 5.00008 10C5.00008 10.5525 5.21957 11.0824 5.61028 11.4731C6.00098 11.8638 6.53088 12.0833 7.08341 12.0833C7.63595 12.0833 8.16585 11.8638 8.55655 11.4731C8.94725 11.0824 9.16675 10.5525 9.16675 10C9.16675 8.33333 7.91675 7.5 7.91675 5.83333C7.91675 4.72222 8.61119 3.61111 10.0001 2.5Z" stroke="#7CB342" stroke-width="1.66667" stroke-linecap="round" stroke-linejoin="round"/>
</svg>
