<svg width="16" height="16" viewBox="0 0 16 16" fill="none" xmlns="http://www.w3.org/2000/svg">
<path d="M7.99992 2C8.44436 3.77778 9.33325 5.22222 10.6666 6.33333C11.9999 7.44444 12.6666 8.66667 12.6666 10C12.6666 11.2377 12.1749 12.4247 11.2997 13.2998C10.4246 14.175 9.2376 14.6667 7.99992 14.6667C6.76224 14.6667 5.57526 14.175 4.70009 13.2998C3.82492 12.4247 3.33325 11.2377 3.33325 10C3.33325 9.27877 3.56718 8.57699 3.99992 8C3.99992 8.44203 4.17551 8.86595 4.48807 9.17851C4.80063 9.49107 5.22456 9.66667 5.66659 9.66667C6.10861 9.66667 6.53254 9.49107 6.8451 9.17851C7.15766 8.86595 7.33325 8.44203 7.33325 8C7.33325 6.66667 6.33325 6 6.33325 4.66667C6.33325 3.77778 6.88881 2.88889 7.99992 2Z" stroke="#FF6B6B" stroke-width="1.33333" stroke-linecap="round" stroke-linejoin="round"/>
</svg>
