<svg width="16" height="16" viewBox="0 0 16 16" fill="none" xmlns="http://www.w3.org/2000/svg">
<g clip-path="url(#clip0_30_1773)">
<path d="M10.6668 14V12.6667C10.6668 11.9594 10.3859 11.2811 9.88578 10.781C9.38568 10.281 8.70741 10 8.00016 10H4.00016C3.29292 10 2.61464 10.281 2.11454 10.781C1.61445 11.2811 1.3335 11.9594 1.3335 12.6667V14" stroke="#3182CE" stroke-width="1.33333" stroke-linecap="round" stroke-linejoin="round"/>
<path d="M10.6665 2.08533C11.2383 2.23357 11.7448 2.5675 12.1063 3.0347C12.4678 3.5019 12.664 4.07592 12.664 4.66666C12.664 5.2574 12.4678 5.83142 12.1063 6.29862C11.7448 6.76582 11.2383 7.09975 10.6665 7.24799" stroke="#3182CE" stroke-width="1.33333" stroke-linecap="round" stroke-linejoin="round"/>
<path d="M14.6665 14V12.6667C14.6661 12.0758 14.4694 11.5019 14.1074 11.0349C13.7454 10.5679 13.2386 10.2344 12.6665 10.0867" stroke="#3182CE" stroke-width="1.33333" stroke-linecap="round" stroke-linejoin="round"/>
<path d="M6.00016 7.33333C7.47292 7.33333 8.66683 6.13943 8.66683 4.66667C8.66683 3.19391 7.47292 2 6.00016 2C4.5274 2 3.3335 3.19391 3.3335 4.66667C3.3335 6.13943 4.5274 7.33333 6.00016 7.33333Z" stroke="#3182CE" stroke-width="1.33333" stroke-linecap="round" stroke-linejoin="round"/>
</g>
<defs>
<clipPath id="clip0_30_1773">
<rect width="16" height="16" fill="white"/>
</clipPath>
</defs>
</svg>
