<svg width="16" height="16" viewBox="0 0 16 16" fill="none" xmlns="http://www.w3.org/2000/svg">
<g clip-path="url(#clip0_30_1763)">
<path d="M8.00016 14.6667C11.6821 14.6667 14.6668 11.6819 14.6668 8.00001C14.6668 4.31811 11.6821 1.33334 8.00016 1.33334C4.31826 1.33334 1.3335 4.31811 1.3335 8.00001C1.3335 11.6819 4.31826 14.6667 8.00016 14.6667Z" stroke="#7CB342" stroke-width="1.33333" stroke-linecap="round" stroke-linejoin="round"/>
<path d="M8 12C10.2091 12 12 10.2091 12 8C12 5.79086 10.2091 4 8 4C5.79086 4 4 5.79086 4 8C4 10.2091 5.79086 12 8 12Z" stroke="#7CB342" stroke-width="1.33333" stroke-linecap="round" stroke-linejoin="round"/>
<path d="M7.99984 9.33332C8.73622 9.33332 9.33317 8.73637 9.33317 7.99999C9.33317 7.26361 8.73622 6.66666 7.99984 6.66666C7.26346 6.66666 6.6665 7.26361 6.6665 7.99999C6.6665 8.73637 7.26346 9.33332 7.99984 9.33332Z" stroke="#7CB342" stroke-width="1.33333" stroke-linecap="round" stroke-linejoin="round"/>
</g>
<defs>
<clipPath id="clip0_30_1763">
<rect width="16" height="16" fill="white"/>
</clipPath>
</defs>
</svg>
