<svg width="20" height="20" viewBox="0 0 20 20" fill="none" xmlns="http://www.w3.org/2000/svg">
<path d="M8.55664 17.5C8.70293 17.7533 8.91332 17.9637 9.16668 18.11C9.42003 18.2563 9.70743 18.3333 9.99997 18.3333C10.2925 18.3333 10.5799 18.2563 10.8333 18.11C11.0866 17.9637 11.297 17.7533 11.4433 17.5" stroke="#4A5568" stroke-width="1.66667" stroke-linecap="round" stroke-linejoin="round"/>
<path d="M2.71821 12.7717C2.60935 12.891 2.53751 13.0394 2.51143 13.1988C2.48534 13.3582 2.50615 13.5217 2.5713 13.6695C2.63646 13.8173 2.74316 13.943 2.87843 14.0312C3.01369 14.1195 3.1717 14.1666 3.33321 14.1667H16.6665C16.828 14.1667 16.9861 14.1199 17.1214 14.0318C17.2568 13.9437 17.3636 13.8181 17.429 13.6704C17.4943 13.5228 17.5153 13.3593 17.4894 13.1998C17.4635 13.0404 17.3919 12.892 17.2832 12.7725C16.1749 11.63 14.9999 10.4159 14.9999 6.66669C14.9999 5.3406 14.4731 4.06883 13.5354 3.13115C12.5977 2.19347 11.326 1.66669 9.99988 1.66669C8.6738 1.66669 7.40203 2.19347 6.46435 3.13115C5.52666 4.06883 4.99988 5.3406 4.99988 6.66669C4.99988 10.4159 3.82405 11.63 2.71821 12.7717Z" stroke="#4A5568" stroke-width="1.66667" stroke-linecap="round" stroke-linejoin="round"/>
</svg>
